<svg id="Capa_1" data-name="Capa 1" xmlns="http://www.w3.org/2000/svg" viewBox="0 0 401.47 74.21"><defs><style>.cls-1,.cls-2{fill:#9c185a;stroke:#9c185a;stroke-miterlimit:10;}.cls-1{stroke-width:2px;}</style></defs><path d="M50.93,43.05a8.48,8.48,0,0,1-2.38,2.86,10.07,10.07,0,0,1-3.63,1.76,17.74,17.74,0,0,1-4.63.57,21.91,21.91,0,0,1-3.7-.26A14.71,14.71,0,0,1,34,47.34a9.3,9.3,0,0,1-1.52-.68,2,2,0,0,0-.64-.31c-.09,0-.28.18-.58.53s-.55.69-.79,1h-.4L30,39.12h.44a13.63,13.63,0,0,0,1,2.32,18,18,0,0,0,1.34,2.11,11.94,11.94,0,0,0,1.54,1.74,7.8,7.8,0,0,0,1.57,1.15,12.66,12.66,0,0,0,2,.79,7.57,7.57,0,0,0,2.38.4,7.74,7.74,0,0,0,5.29-1.79,6.09,6.09,0,0,0,2-4.82,5.55,5.55,0,0,0-.39-2.16,5.29,5.29,0,0,0-1.08-1.61,7.16,7.16,0,0,0-1.61-1.17,20,20,0,0,0-2-.88l-1.86-.66c-.52-.17-1-.34-1.47-.51l-1.41-.48c-.49-.16-1.07-.37-1.74-.64a9.58,9.58,0,0,1-2.21-1.21A9.07,9.07,0,0,1,32,29.89a9.27,9.27,0,0,1-1.27-2.29,7.18,7.18,0,0,1-.49-2.66,9,9,0,0,1,.87-4.1A8.41,8.41,0,0,1,33.41,18a9.85,9.85,0,0,1,3.38-1.69,14.42,14.42,0,0,1,4-.55,15.07,15.07,0,0,1,3.39.33,13.35,13.35,0,0,1,2.32.73,7.75,7.75,0,0,1,1.36.72,3.06,3.06,0,0,0,.51.33c.09,0,.27-.17.55-.53s.54-.7.77-1h.49v8.15h-.49a17.6,17.6,0,0,0-1.37-2.89A12.66,12.66,0,0,0,46.42,19a9.46,9.46,0,0,0-2.52-1.83,6.88,6.88,0,0,0-3.12-.71,8.1,8.1,0,0,0-2.58.4A6,6,0,0,0,36.08,18a5.51,5.51,0,0,0-1.41,2,6.78,6.78,0,0,0-.5,2.66,5.1,5.1,0,0,0,1.4,3.75,10.11,10.11,0,0,0,3.65,2.25c.59.23,1.14.44,1.65.61l1.52.51,1.51.51c.51.17,1.05.36,1.61.57A10.3,10.3,0,0,1,50.14,34a8.2,8.2,0,0,1,1.65,5.23A8.11,8.11,0,0,1,50.93,43.05Z" transform="translate(-14.66 -10.26)"/><path d="M87.39,24.5c-.23-.53-.51-1.08-.83-1.66s-.66-1.11-1-1.6-.66-1-1-1.39a6.78,6.78,0,0,0-.83-1,4.62,4.62,0,0,0-2-1.17A12.37,12.37,0,0,0,79,17.4l-1.46,0-1.23,0H73.38c0,.73,0,1.73,0,3s0,2.59,0,4V41.55c0,.85,0,1.66.06,2.44a2.91,2.91,0,0,0,2.29,3c.81.23,1.54.41,2.19.53v.44H63.56V47.5a13.2,13.2,0,0,0,2.2-.45,4.58,4.58,0,0,0,2.07-1.45,1.42,1.42,0,0,0,.33-.73c.07-.33.13-.72.18-1.14s.07-.89.08-1.39,0-1,0-1.45,0-1,0-1.63,0-1.43,0-2.25,0-1.68,0-2.56V17.36h-2.9l-1.22,0-1.47,0a9.6,9.6,0,0,0-2.75.4,5.14,5.14,0,0,0-2,1.23,5.83,5.83,0,0,0-.81.93c-.31.41-.64.86-1,1.34a16,16,0,0,0-1,1.57,9.64,9.64,0,0,0-.73,1.63l-.4-.14L55.62,16c.68.15,1.3.27,1.88.35a20.85,20.85,0,0,0,2.49.18l3,.07,2.56,0h8.37l2.56,0L79,16.54l3,0a14.42,14.42,0,0,0,2.4-.24c.63-.13,1.28-.3,2-.51l1.41,8.59Z" transform="translate(-14.66 -10.26)"/><path d="M116.87,47.94h-27V47.5a8.71,8.71,0,0,0,2-.58,4.24,4.24,0,0,0,1.57-1.1,2.13,2.13,0,0,0,.35-.77q.13-.51.24-1.17c.07-.44.13-.9.16-1.39s0-1,0-1.43,0-1,0-1.67,0-1.48,0-2.32,0-1.69,0-2.57V23.35c0-.53,0-1.07,0-1.63s0-1.09-.09-1.59a9.37,9.37,0,0,0-.22-1.34,1.91,1.91,0,0,0-.42-.86,3,3,0,0,0-1.41-.9,19.65,19.65,0,0,0-1.94-.38v-.44h24.32l3,7.27-.44.22a21.63,21.63,0,0,0-6.7-6,11.08,11.08,0,0,0-2.78-.62,40.18,40.18,0,0,0-4.93-.26c-.62,0-1.26,0-1.92.07a11.36,11.36,0,0,0-1.43.15q-.09.7-.15,2.91c0,1.47-.07,3.17-.07,5.11v2.82c0,.76,0,1.39,0,1.87s0,.86,0,1.12v.49h.89c.44,0,.94,0,1.52,0s1.14-.07,1.71-.12A10.82,10.82,0,0,0,104.8,31a7.9,7.9,0,0,0,2.2-.84,4.8,4.8,0,0,0,1.43-1.28,6.18,6.18,0,0,0,.88-1.74,21.9,21.9,0,0,0,.6-2.22h.53V38.82h-.53a15.75,15.75,0,0,0-1.08-2.91,7.82,7.82,0,0,0-1.52-2.25,5.8,5.8,0,0,0-1.7-1,7.43,7.43,0,0,0-2.31-.49l-1.1-.06-.88,0h-2a13.67,13.67,0,0,0-.09,1.81v5.29c0,.47,0,.92,0,1.34s0,.79,0,1.08c0,.94.09,1.83.16,2.67a4.11,4.11,0,0,0,.51,1.87,2.77,2.77,0,0,0,1.89.88,18.49,18.49,0,0,0,3.26.26c.5,0,1.14,0,1.92,0a24.26,24.26,0,0,0,2.44-.22,9.64,9.64,0,0,0,2.6-.68,9.36,9.36,0,0,0,2.29-1.43,14.66,14.66,0,0,0,2.14-2.27,32,32,0,0,0,2.14-3.24l.48.13Z" transform="translate(-14.66 -10.26)"/><path d="M149.56,23.84A41.76,41.76,0,0,0,146.12,20,12.26,12.26,0,0,0,143,17.67a9.75,9.75,0,0,0-2.71-.6,38,38,0,0,0-4.56-.24l-1,0-1.1,0-1,0-.69,0a5,5,0,0,1-.11.53c0,.18-.08.38-.11.62s-.06.53-.09.9-.05.82-.08,1.34c0,1-.06,2.16-.07,3.37s0,2.38,0,3.46v4.19h.79c.47,0,1,0,1.57,0l1.78-.12a12.16,12.16,0,0,0,1.54-.19,8.27,8.27,0,0,0,2.51-.93,4.68,4.68,0,0,0,1.46-1.36,5.4,5.4,0,0,0,.75-1.74c.14-.64.28-1.32.39-2h.53V39.12h-.53a19.69,19.69,0,0,0-1-3,6.69,6.69,0,0,0-1.59-2.4,5.66,5.66,0,0,0-1.78-1.12,7.44,7.44,0,0,0-2.23-.47l-1.14-.06-.93,0h-2.11v5.47c0,.82,0,1.58,0,2.27s0,1.28,0,1.78c0,.94.08,1.83.16,2.67a4.25,4.25,0,0,0,.5,1.87,2.56,2.56,0,0,0,1.35.95,10.39,10.39,0,0,0,2.75.42v.44h-14.1V47.5a8.71,8.71,0,0,0,2-.58,4.12,4.12,0,0,0,1.56-1.1,2,2,0,0,0,.36-.77c.08-.34.17-.73.24-1.17s.12-.9.15-1.39,0-1,0-1.43,0-1,0-1.67,0-1.48,0-2.32,0-1.69,0-2.57V23.35c0-.53,0-1.07,0-1.63s0-1.09-.08-1.59a9.37,9.37,0,0,0-.22-1.34,2,2,0,0,0-.42-.86,3,3,0,0,0-1.41-.9,19.65,19.65,0,0,0-1.94-.38v-.44H147l3,7.4Z" transform="translate(-14.66 -10.26)"/><path d="M169.65,47.94V47.5a5.17,5.17,0,0,0,.64-.09,5.22,5.22,0,0,0,1.06-.31,3,3,0,0,0,1-.62,1.32,1.32,0,0,0,.42-1,5.38,5.38,0,0,0-.25-1.3c-.16-.6-.39-1.34-.68-2.2s-.63-1.83-1-2.89-.8-2.16-1.24-3.3H157.84C157.4,36.89,157,38,156.57,39s-.83,2-1.24,3.06a11.3,11.3,0,0,0-.92,3.35,1.31,1.31,0,0,0,.35.95,2.7,2.7,0,0,0,.9.61,5.14,5.14,0,0,0,1.19.36l1.21.2v.44h-9.38v-.49a4.82,4.82,0,0,0,2-.62,4.37,4.37,0,0,0,1-.66,9.87,9.87,0,0,0,1-1.45,33,33,0,0,0,1.72-3.39c.62-1.38,1.31-3,2.07-4.72l2.36-5.44c.8-1.86,1.61-3.74,2.4-5.64s1.54-3.66,2.25-5.31l-.44-1a7.43,7.43,0,0,0,1.43-.83,9.32,9.32,0,0,0,1.12-1,9.59,9.59,0,0,0,.82-1c.22-.32.38-.59.5-.79h.35l2.6,6.94c.83,2.18,1.61,4.29,2.36,6.32s1.48,4,2.18,5.88,1.41,3.77,2.12,5.62c.32.91.62,1.66.9,2.27l.95,2a6.08,6.08,0,0,0,.39.62,5.56,5.56,0,0,0,.82.91,5.16,5.16,0,0,0,1.26.81,4.43,4.43,0,0,0,1.76.4v.53Zm-5.77-26.7c-.18.38-.43,1-.77,1.8s-.76,1.82-1.26,3-1,2.5-1.65,4-1.25,3.09-2,4.82h11c-.5-1.32-1-2.64-1.52-4s-1-2.59-1.5-3.81l-1.32-3.35C164.48,22.71,164.14,21.88,163.88,21.24Z" transform="translate(-14.66 -10.26)"/><path d="M216.64,17.49a3.88,3.88,0,0,0-1.52,1.89,7.46,7.46,0,0,0-.39,2.45q-.09,1.79-.18,3.81c-.06,1.26-.11,2.75-.16,4.47s-.06,3.56-.06,5.53v2.82c0,1,0,2.08,0,3.15s0,2.14,0,3.2v2.86a.38.38,0,0,1-.11.29.45.45,0,0,1-.33.11,1.23,1.23,0,0,1-.79-.44q-3.75-4.32-6.83-7.93l-5.88-6.9-5.49-6.41c-1.79-2.09-3.68-4.24-5.68-6.48v18.6c0,1.5,0,2.85.11,4.05a7.34,7.34,0,0,0,.55,2.69,3.2,3.2,0,0,0,1.52,1.52,9.16,9.16,0,0,0,2.84.73v.44H183.44V47.5a8.76,8.76,0,0,0,2.12-.56,3.42,3.42,0,0,0,1.67-1.38,6,6,0,0,0,.79-2.74c.12-1.2.21-2.64.27-4.31.06-1.27.1-2.76.13-4.48s.05-3.56.05-5.52V23.13c0-.59,0-1.31-.05-2.16a5,5,0,0,0-.62-2.09,4.08,4.08,0,0,0-1.14-1.28,4.33,4.33,0,0,0-1.43-.66,12.83,12.83,0,0,0-1.48-.29v-.44h8.95l20.88,24.41v-15c0-1.17,0-2.3,0-3.37a8,8,0,0,0-.4-2.53,4.1,4.1,0,0,0-1.56-2,7.87,7.87,0,0,0-3.24-1.08v-.44h10.92v.44A6.73,6.73,0,0,0,216.64,17.49Z" transform="translate(-14.66 -10.26)"/><path d="M249.36,17.27a6.7,6.7,0,0,0-1.63,1.15,10.41,10.41,0,0,0-1.43,1.67c-.46.65-1,1.38-1.48,2.2-.35.56-.84,1.32-1.48,2.27l-1.94,3-1.91,2.95c-.62.94-1.1,1.67-1.46,2.2v8.86c0,.85,0,1.68.07,2.49a3.22,3.22,0,0,0,.42,1.69A3.08,3.08,0,0,0,240.24,47a19.64,19.64,0,0,0,2,.49v.44H228.69V47.5a10.11,10.11,0,0,0,2-.42,4.61,4.61,0,0,0,1.83-1.39,1.64,1.64,0,0,0,.33-.75,11.33,11.33,0,0,0,.17-1.19q.08-.66.09-1.41c0-.5,0-1,0-1.45,0-.83.05-1.8.07-2.93s0-2.51,0-4.12L232.7,33l-1.08-1.74L230.21,29c-.51-.86-1-1.69-1.52-2.49l-1.41-2.27c-.44-.71-.8-1.28-1.1-1.72-.56-.85-1.06-1.63-1.52-2.34a12.48,12.48,0,0,0-1.39-1.8,7.58,7.58,0,0,0-1.38-1.19,3.1,3.1,0,0,0-1.57-.49v-.44h13.35v.44c-.44,0-.88.08-1.32.14a5.82,5.82,0,0,0-1.23.28,2.52,2.52,0,0,0-.93.53,1.19,1.19,0,0,0-.35.9,4.09,4.09,0,0,0,.64,1.74c.42.78.87,1.57,1.34,2.36.32.53.71,1.17,1.15,1.92s.92,1.54,1.45,2.38,1.07,1.69,1.61,2.57,1.05,1.72,1.52,2.52c.38-.56.85-1.27,1.41-2.14s1.12-1.75,1.7-2.64l1.63-2.58c.51-.82.9-1.47,1.16-1.94.15-.24.31-.51.49-.82s.34-.63.5-1a6.55,6.55,0,0,0,.42-1,3,3,0,0,0,.18-1,1.61,1.61,0,0,0-.35-1.1,2.38,2.38,0,0,0-.91-.62,5.93,5.93,0,0,0-1.21-.33l-1.28-.2v-.44h10.18v.44A7,7,0,0,0,249.36,17.27Z" transform="translate(-14.66 -10.26)"/><path d="M292.54,26.43a15.19,15.19,0,0,0-1.72-4,14.38,14.38,0,0,0-2.71-3.22,12.5,12.5,0,0,0-3.53-2.16,10.92,10.92,0,0,0-4.16-.79A10.7,10.7,0,0,0,275,17.67a12.42,12.42,0,0,0-4,3.61,17.18,17.18,0,0,0-2.46,5.09,19.8,19.8,0,0,0-.86,5.84,19.14,19.14,0,0,0,.9,5.94A14.62,14.62,0,0,0,271.17,43a12.3,12.3,0,0,0,4.05,3.24,11.72,11.72,0,0,0,5.29,1.19,11,11,0,0,0,4.29-.84,13,13,0,0,0,3.57-2.2A13.37,13.37,0,0,0,291,41.22a11.87,11.87,0,0,0,1.47-3.68H293l-.13,9.69h-.53a14,14,0,0,0-1.1-1.37c-.38-.41-.65-.61-.79-.61a3.67,3.67,0,0,0-.8.46,11.86,11.86,0,0,1-2,1,19,19,0,0,1-3.21,1,20.28,20.28,0,0,1-4.36.42,22.16,22.16,0,0,1-7.41-1.17,15.94,15.94,0,0,1-5.61-3.3,14.3,14.3,0,0,1-3.55-5.11A16.93,16.93,0,0,1,262.27,32a17,17,0,0,1,.5-4,18.23,18.23,0,0,1,.8-2.4,16.42,16.42,0,0,1,3.59-5.4,14.62,14.62,0,0,1,3.21-2.4,17.94,17.94,0,0,1,4.19-1.65,20.58,20.58,0,0,1,5.24-.62,19.29,19.29,0,0,1,4.63.49,20.85,20.85,0,0,1,3.3,1.05,13.48,13.48,0,0,1,2,1.06,4.28,4.28,0,0,0,.79.49.78.78,0,0,0,.33-.2c.16-.14.34-.3.53-.49s.39-.41.6-.66.39-.5.57-.77h.48v9.87Z" transform="translate(-14.66 -10.26)"/><path d="M315.67,47.94V47.5a5.91,5.91,0,0,0,1.69-.4,3,3,0,0,0,1-.62,1.32,1.32,0,0,0,.42-1,5.76,5.76,0,0,0-.24-1.3c-.16-.6-.39-1.34-.68-2.2s-.64-1.83-1-2.89-.79-2.16-1.23-3.3H303.86c-.44,1.11-.87,2.18-1.28,3.19s-.82,2-1.23,3.06a11.1,11.1,0,0,0-.93,3.35,1.36,1.36,0,0,0,.35.95,2.74,2.74,0,0,0,.91.61,4.86,4.86,0,0,0,1.19.36l1.21.2v.44h-9.39v-.49a4.77,4.77,0,0,0,2-.62,4.1,4.1,0,0,0,1-.66,9.66,9.66,0,0,0,1-1.45,33.3,33.3,0,0,0,1.71-3.39c.62-1.38,1.31-3,2.07-4.72S304,33,304.76,31.17s1.61-3.74,2.4-5.64l2.25-5.31-.44-1a6.87,6.87,0,0,0,1.43-.83,8.62,8.62,0,0,0,1.12-1,8.47,8.47,0,0,0,.82-1c.22-.32.39-.59.51-.79h.35l2.6,6.94q1.23,3.27,2.36,6.32t2.18,5.88c.7,1.89,1.41,3.77,2.11,5.62.32.91.63,1.66.9,2.27l.95,2a5.08,5.08,0,0,0,.4.62,5.47,5.47,0,0,0,.81.91,5.16,5.16,0,0,0,1.26.81,4.51,4.51,0,0,0,1.76.4v.53Zm-5.78-26.7c-.17.38-.43,1-.77,1.8s-.75,1.82-1.25,3-1.05,2.5-1.65,4-1.26,3.09-2,4.82h11c-.5-1.32-1-2.64-1.52-4l-1.5-3.81c-.49-1.22-.93-2.33-1.32-3.35S310.16,21.88,309.89,21.24Z" transform="translate(-14.66 -10.26)"/><path d="M362.66,17.49a3.88,3.88,0,0,0-1.52,1.89,7.39,7.39,0,0,0-.4,2.45q-.09,1.79-.18,3.81t-.15,4.47c0,1.72-.07,3.56-.07,5.53v2.82q0,1.55,0,3.15c0,1.08,0,2.14,0,3.2v2.86a.42.42,0,0,1-.11.29.49.49,0,0,1-.33.11,1.25,1.25,0,0,1-.8-.44q-3.73-4.32-6.83-7.93l-5.88-6.9c-1.86-2.19-3.69-4.32-5.48-6.41s-3.69-4.24-5.69-6.48v18.6c0,1.5,0,2.85.11,4.05a7.55,7.55,0,0,0,.55,2.69,3.25,3.25,0,0,0,1.52,1.52,9.15,9.15,0,0,0,2.85.73v.44H329.46V47.5a8.68,8.68,0,0,0,2.11-.56,3.44,3.44,0,0,0,1.68-1.38,6.12,6.12,0,0,0,.79-2.74c.12-1.2.2-2.64.26-4.31.06-1.27.11-2.76.14-4.48s0-3.56,0-5.52V23.13c0-.59,0-1.31,0-2.16a5.16,5.16,0,0,0-.62-2.09,4.1,4.1,0,0,0-1.15-1.28,4.23,4.23,0,0,0-1.43-.66,12.68,12.68,0,0,0-1.47-.29v-.44h8.94l20.88,24.41v-15c0-1.17,0-2.3,0-3.37a7.77,7.77,0,0,0-.4-2.53,4,4,0,0,0-1.56-2,7.87,7.87,0,0,0-3.24-1.08v-.44h10.93v.44A6.68,6.68,0,0,0,362.66,17.49Z" transform="translate(-14.66 -10.26)"/><path d="M400.44,38.37a16.28,16.28,0,0,1-3.59,5.2,16.06,16.06,0,0,1-5.29,3.4,17.84,17.84,0,0,1-12.76,0,15.94,15.94,0,0,1-5.24-3.31A15.47,15.47,0,0,1,370,38.57a16.25,16.25,0,0,1-1.3-6.54,16.34,16.34,0,0,1,1.37-6.81,15.39,15.39,0,0,1,3.68-5.11,16.1,16.1,0,0,1,5.42-3.21,19.05,19.05,0,0,1,6.54-1.13,16.38,16.38,0,0,1,6.72,1.32,15.45,15.45,0,0,1,5.05,3.55,15.67,15.67,0,0,1,3.17,5.13,17.14,17.14,0,0,1,1.1,6.08A16,16,0,0,1,400.44,38.37Zm-4.83-11.89a17,17,0,0,0-2.07-5,11.72,11.72,0,0,0-3.46-3.61,8.54,8.54,0,0,0-4.89-1.39,8.69,8.69,0,0,0-4.95,1.39,11.25,11.25,0,0,0-3.44,3.59,16.34,16.34,0,0,0-2,5,25.13,25.13,0,0,0-.64,5.66,23.32,23.32,0,0,0,.7,5.77,15.82,15.82,0,0,0,2.1,4.89,10.86,10.86,0,0,0,3.48,3.4,9.17,9.17,0,0,0,4.87,1.28,8.29,8.29,0,0,0,4.82-1.41,11.89,11.89,0,0,0,3.41-3.64,17,17,0,0,0,2.05-5,22.92,22.92,0,0,0,.69-5.55A22.07,22.07,0,0,0,395.61,26.48Z" transform="translate(-14.66 -10.26)"/><rect class="cls-1" x="1" y="1" width="2.57" height="64.87"/><rect class="cls-1" x="39.31" y="49.92" width="2.57" height="49.87" transform="translate(-48.92 105.18) rotate(-90)"/><rect class="cls-1" x="412.56" y="11.26" width="2.57" height="64.87" transform="translate(813.04 77.14) rotate(-180)"/><rect class="cls-1" x="388.91" y="49.92" width="2.57" height="49.87" transform="translate(300.68 454.79) rotate(-90)"/><path class="cls-2" d="M91.86,76.47H83.13l-2,5.46h-1.7l7.31-19.58h1.55l7.26,19.58h-1.7ZM83.64,75h7.69L87.56,64.65h-.09Z" transform="translate(-14.66 -10.26)"/><path class="cls-2" d="M106.52,73.08v8.85h-1.65V62.36h6.64a7.63,7.63,0,0,1,4.9,1.38,4.87,4.87,0,0,1,1.71,4,4.55,4.55,0,0,1-.91,2.79,5.14,5.14,0,0,1-2.57,1.8A4.36,4.36,0,0,1,117.3,74a5.08,5.08,0,0,1,.81,3v1.84a5.52,5.52,0,0,0,.22,1.64,2.49,2.49,0,0,0,.72,1.19v.32h-1.67a2.72,2.72,0,0,1-.71-1.36,8.3,8.3,0,0,1-.2-1.81V77a3.64,3.64,0,0,0-1.18-2.85,4.86,4.86,0,0,0-3.31-1Zm0-1.37h4.79a6,6,0,0,0,3.94-1.07,3.6,3.6,0,0,0,1.25-2.88,3.68,3.68,0,0,0-1.24-3,5.71,5.71,0,0,0-3.75-1.05h-5Z" transform="translate(-14.66 -10.26)"/><path class="cls-2" d="M144.08,73.74a10.29,10.29,0,0,1-.5,3.3,8,8,0,0,1-1.43,2.62l3.18,3-1.14,1.08-3.21-3a6.85,6.85,0,0,1-2.14,1.08,8.34,8.34,0,0,1-2.54.37,7.1,7.1,0,0,1-5.58-2.34,8.87,8.87,0,0,1-2.09-6.13V70.55a8.94,8.94,0,0,1,2.08-6.13,7.08,7.08,0,0,1,5.58-2.35A7.24,7.24,0,0,1,142,64.42a8.78,8.78,0,0,1,2.12,6.13Zm-1.62-3.21a7.65,7.65,0,0,0-1.64-5.11,5.58,5.58,0,0,0-4.53-1.94,5.38,5.38,0,0,0-4.43,1.94,7.79,7.79,0,0,0-1.59,5.11v3.21a7.84,7.84,0,0,0,1.6,5.14,5.42,5.42,0,0,0,4.43,1.94,5.63,5.63,0,0,0,4.54-1.93,7.77,7.77,0,0,0,1.62-5.15Z" transform="translate(-14.66 -10.26)"/><path class="cls-2" d="M168.81,62.35v13a6.45,6.45,0,0,1-2,5.05,7.41,7.41,0,0,1-5.17,1.81,7.2,7.2,0,0,1-5.09-1.82,6.49,6.49,0,0,1-2-5v-13h1.64v13a5.17,5.17,0,0,0,5.42,5.51,5.6,5.6,0,0,0,4-1.48,5.3,5.3,0,0,0,1.56-4v-13Z" transform="translate(-14.66 -10.26)"/><path class="cls-2" d="M182,81.93h-1.65V62.35H182Z" transform="translate(-14.66 -10.26)"/><path class="cls-2" d="M206.92,63.72h-6.78V81.93h-1.62V63.72h-7V62.35h15.42Z" transform="translate(-14.66 -10.26)"/><path class="cls-2" d="M227,72.45h-8.93v8.12h10.33v1.36h-12V62.35h11.9v1.37H218.06v7.36H227Z" transform="translate(-14.66 -10.26)"/><path class="cls-2" d="M251.87,75.81l0,.08a5.65,5.65,0,0,1-1.92,4.6,7.53,7.53,0,0,1-5.16,1.72,6.7,6.7,0,0,1-5.36-2.36,9,9,0,0,1-2-6.11V70.55a9,9,0,0,1,2-6.11,6.71,6.71,0,0,1,5.36-2.37A7.63,7.63,0,0,1,250,63.75a5.65,5.65,0,0,1,1.9,4.62l0,.09h-1.53a4.74,4.74,0,0,0-1.47-3.7,5.84,5.84,0,0,0-4.05-1.32,5.06,5.06,0,0,0-4.19,2,7.92,7.92,0,0,0-1.58,5.1v3.21a7.94,7.94,0,0,0,1.58,5.13,5.08,5.08,0,0,0,4.19,2,5.93,5.93,0,0,0,4.05-1.3,4.72,4.72,0,0,0,1.47-3.75Z" transform="translate(-14.66 -10.26)"/><path class="cls-2" d="M275.55,63.72h-6.78V81.93h-1.63V63.72h-7V62.35h15.42Z" transform="translate(-14.66 -10.26)"/><path class="cls-2" d="M299,62.35v13a6.45,6.45,0,0,1-2,5.05,7.41,7.41,0,0,1-5.17,1.81,7.2,7.2,0,0,1-5.09-1.82,6.49,6.49,0,0,1-2-5v-13h1.64v13a5.17,5.17,0,0,0,5.42,5.51,5.6,5.6,0,0,0,4-1.48,5.3,5.3,0,0,0,1.56-4v-13Z" transform="translate(-14.66 -10.26)"/><path class="cls-2" d="M311.73,73.08v8.85h-1.64V62.36h6.63a7.66,7.66,0,0,1,4.91,1.38,4.87,4.87,0,0,1,1.71,4,4.61,4.61,0,0,1-.91,2.79,5.21,5.21,0,0,1-2.58,1.8A4.33,4.33,0,0,1,322.51,74a5.08,5.08,0,0,1,.81,3v1.84a5.86,5.86,0,0,0,.22,1.64,2.58,2.58,0,0,0,.73,1.19v.32H322.6a2.64,2.64,0,0,1-.71-1.36,7.73,7.73,0,0,1-.21-1.81V77a3.61,3.61,0,0,0-1.18-2.85,4.85,4.85,0,0,0-3.3-1Zm0-1.37h4.8a6,6,0,0,0,3.94-1.07,3.59,3.59,0,0,0,1.24-2.88,3.65,3.65,0,0,0-1.24-3,5.67,5.67,0,0,0-3.75-1.05h-5Z" transform="translate(-14.66 -10.26)"/><path class="cls-2" d="M345.11,76.47h-8.73l-2,5.46h-1.7L340,62.35h1.54l7.26,19.58H347.1ZM336.9,75h7.68l-3.77-10.38h-.08Z" transform="translate(-14.66 -10.26)"/></svg>