<svg id="Capa_1" data-name="Capa 1" xmlns="http://www.w3.org/2000/svg" viewBox="0 0 450.05 392.27"><defs><style>.cls-1,.cls-2,.cls-3{fill:#9d1a5b;}.cls-2,.cls-3{stroke:#9d1a5b;stroke-miterlimit:10;}.cls-2{stroke-width:2px;}</style></defs><path d="M158.13,273.37a72.89,72.89,0,0,0,13.73-25.68,77.19,77.19,0,0,0,2.8-31.3c-1.81-16.29-10.27-28.07-24.23-36.16-10.82-6.27-22.58-10.42-34.18-14.95-11.77-4.59-23.84-8.48-35.14-14.16C62.9,142,50.4,127.49,43.59,108.41c-3.05-8.58-3.47-17.71-2.47-26.86,1.18-10.68,4.68-20.63,9-30.38.09-.21.23-.41.43-.76.8,1.36.69,2.82,1,4.15C54,65.06,59.53,74,66.06,82.38,77.62,97.25,92.28,108,109.62,115.3c13.56,5.75,27.49,10.52,41.19,15.89,9.84,3.86,19.57,7.93,28.08,14.38,14.6,11.07,24.38,25.25,27.92,43.42a82.13,82.13,0,0,1,1.46,22.93c-.76,8.66-4.34,16.37-8.94,23.63-7.55,11.93-17.51,21.55-28.74,30a131,131,0,0,1-10.86,7.36C159.27,273.14,158.87,273.55,158.13,273.37Z"/><path d="M230,150.66,225.93,142q-9.72-20.66-19.46-41.28a2.7,2.7,0,0,1,.18-3c14.71-23.42,35.06-39.9,60.91-49.68a148.49,148.49,0,0,1,39.23-9.12,201,201,0,0,1,33.28-.23,157,157,0,0,1,47.1,11.41A98.74,98.74,0,0,1,402.1,57.6a1.9,1.9,0,0,1,1.12,1.82c0,6.91,0,13.81,0,20.71,0,.16-.13.31-.25.57-2.76-3.08-5.4-6.19-8.21-9.13-10.1-10.58-22.35-17.8-36-22.69-13-4.65-26.45-5.67-40.08-4.21C299.44,46.72,283.05,55,268.94,68c-13,12-22.06,26.76-28.65,43.08a151.47,151.47,0,0,0-9.95,39.37S230.26,150.51,230,150.66Z"/><path d="M410.91,214.89c0,4.93,0,9.56,0,14.18a3.28,3.28,0,0,1-.65,2C395.4,252.45,375.8,267.51,351,275.59a92.72,92.72,0,0,1-33.12,4.65c-31-1.42-57-13.59-77.54-37a99.73,99.73,0,0,1-16.74-27c-.23-.55-.85-2.28-1.26-3.29,1.86-.05,4.48-.09,8.09-.13.2.33.35.6.41.68a5.51,5.51,0,0,1,.29.55c12.78,28.18,34.15,46.46,63.82,55.06A92.79,92.79,0,0,0,330,272.3a95.37,95.37,0,0,0,42.37-14.78,104.18,104.18,0,0,0,38-41.82A9.17,9.17,0,0,1,410.91,214.89Z"/><path d="M58.59,333.53a8.61,8.61,0,0,1-2.37,2.87,10.2,10.2,0,0,1-3.64,1.76,17.74,17.74,0,0,1-4.63.57,23,23,0,0,1-3.7-.26,14.71,14.71,0,0,1-2.55-.64,8.41,8.41,0,0,1-1.52-.69,2,2,0,0,0-.64-.3c-.09,0-.28.17-.57.52s-.56.69-.8,1h-.39l-.14-8.77h.44a14.76,14.76,0,0,0,1,2.31A19.57,19.57,0,0,0,40.44,334,12.56,12.56,0,0,0,42,335.78a7.61,7.61,0,0,0,1.57,1.14,12.57,12.57,0,0,0,2,.8,7.89,7.89,0,0,0,2.38.39,7.71,7.71,0,0,0,5.29-1.78,6.11,6.11,0,0,0,2-4.83,5.47,5.47,0,0,0-.39-2.15,5.18,5.18,0,0,0-1.08-1.61,6.41,6.41,0,0,0-1.61-1.17,17.93,17.93,0,0,0-2-.88c-.71-.27-1.32-.49-1.85-.66l-1.48-.51L45.42,324l-1.74-.64a9.91,9.91,0,0,1-2.2-1.21,9.07,9.07,0,0,1-1.85-1.81,9.16,9.16,0,0,1-1.28-2.29,7.44,7.44,0,0,1-.49-2.67,9,9,0,0,1,.87-4.1,8.38,8.38,0,0,1,2.34-2.86,10,10,0,0,1,3.38-1.7,14.8,14.8,0,0,1,4-.55,15.23,15.23,0,0,1,3.4.33,14.12,14.12,0,0,1,2.31.73,7.33,7.33,0,0,1,1.36.73,3.06,3.06,0,0,0,.51.33c.09,0,.27-.18.55-.53s.54-.71.77-1.06h.49v8.15h-.49A17.88,17.88,0,0,0,56,312a13.16,13.16,0,0,0-1.94-2.56,9.41,9.41,0,0,0-2.51-1.83,6.92,6.92,0,0,0-3.13-.7,8.1,8.1,0,0,0-2.58.4,6,6,0,0,0-2.11,1.18,5.31,5.31,0,0,0-1.41,2,6.54,6.54,0,0,0-.51,2.66,5.07,5.07,0,0,0,1.41,3.75,9.83,9.83,0,0,0,3.64,2.24c.59.24,1.14.44,1.65.62l1.52.51,1.51.5,1.61.58a10.26,10.26,0,0,1,4.64,3.19,8.24,8.24,0,0,1,1.64,5.22A8.11,8.11,0,0,1,58.59,333.53Z"/><path d="M95.05,315a18.21,18.21,0,0,0-.83-1.65c-.33-.57-.66-1.11-1-1.61s-.67-1-1-1.39a6.6,6.6,0,0,0-.83-.94,4.62,4.62,0,0,0-2-1.17,12.37,12.37,0,0,0-2.75-.33l-1.46,0-1.23,0H81c0,.74,0,1.74,0,3s0,2.58,0,4V332c0,.86,0,1.67.07,2.45a3.22,3.22,0,0,0,.41,1.65,3.26,3.26,0,0,0,1.88,1.32,20.62,20.62,0,0,0,2.18.53v.44H71.22V338a13,13,0,0,0,2.2-.44,4.48,4.48,0,0,0,2.07-1.45,1.42,1.42,0,0,0,.33-.73c.07-.34.13-.72.18-1.15s.07-.88.09-1.38,0-1,0-1.46,0-.95,0-1.63,0-1.42,0-2.25,0-1.67,0-2.55v-17.1H73.29l-1.21,0-1.48,0a10.07,10.07,0,0,0-2.75.39,5.37,5.37,0,0,0-2,1.24,6.27,6.27,0,0,0-.81.92c-.31.42-.63.86-1,1.35a16.62,16.62,0,0,0-1,1.56,10,10,0,0,0-.73,1.63l-.39-.13,1.32-8.37c.67.15,1.3.26,1.87.35a20.85,20.85,0,0,0,2.49.18l3,.06c.89,0,1.74,0,2.56,0h8.37c.88,0,1.73,0,2.56,0l2.55,0c.88,0,1.88,0,3,0a13.31,13.31,0,0,0,2.4-.25c.63-.13,1.28-.3,2-.5l1.41,8.59Z"/><path d="M124.53,338.42h-27V338a9.27,9.27,0,0,0,2-.57,4.19,4.19,0,0,0,1.57-1.1,2.21,2.21,0,0,0,.35-.77q.14-.51.24-1.17a12,12,0,0,0,.16-1.39c0-.48,0-1,0-1.43s0-1,0-1.68,0-1.47.05-2.31,0-1.7,0-2.58V313.84c0-.53,0-1.08,0-1.63s-.05-1.09-.09-1.59a8,8,0,0,0-.22-1.34,1.77,1.77,0,0,0-.42-.86,3.08,3.08,0,0,0-1.41-.91,19.46,19.46,0,0,0-1.94-.37v-.44h24.32l3,7.27-.44.22a21.26,21.26,0,0,0-6.7-6,10.54,10.54,0,0,0-2.77-.62,38.55,38.55,0,0,0-4.94-.26c-.62,0-1.25,0-1.92.06s-1.13.1-1.43.15q-.09.72-.15,2.91c-.05,1.47-.07,3.18-.07,5.11v2.82c0,.77,0,1.39,0,1.88s0,.86,0,1.12v.49h.88c.44,0,.94,0,1.52-.05l1.72-.11a9.1,9.1,0,0,0,1.43-.2,7.6,7.6,0,0,0,2.2-.83,4.81,4.81,0,0,0,1.43-1.28,6.18,6.18,0,0,0,.88-1.74,22.13,22.13,0,0,0,.6-2.23h.53V329.3h-.53a15.75,15.75,0,0,0-1.08-2.91,7.89,7.89,0,0,0-1.52-2.24,6,6,0,0,0-1.7-1,7.73,7.73,0,0,0-2.31-.48l-1.1-.07-.88,0h-2a13.47,13.47,0,0,0-.09,1.81v5.28c0,.47,0,.92,0,1.35s0,.78,0,1.08c0,.94.08,1.82.15,2.66a4.07,4.07,0,0,0,.51,1.87,2.73,2.73,0,0,0,1.89.89,19.49,19.49,0,0,0,3.26.26c.5,0,1.14,0,1.92,0s1.59-.11,2.44-.22a9.65,9.65,0,0,0,2.6-.69,8.63,8.63,0,0,0,2.29-1.43,14.22,14.22,0,0,0,2.14-2.27,29.87,29.87,0,0,0,2.14-3.24l.48.14Z"/><path d="M157.22,314.32a41.68,41.68,0,0,0-3.43-3.83,12.52,12.52,0,0,0-3.18-2.34,10.23,10.23,0,0,0-2.71-.59,37.84,37.84,0,0,0-4.56-.24c-.29,0-.63,0-1,0l-1.1,0-1,.05-.69,0a3.58,3.58,0,0,1-.11.53c0,.17-.08.38-.11.61s-.05.54-.08.91-.06.81-.09,1.34c0,1,0,2.15-.07,3.37s0,2.37,0,3.46v4.19h.79c.47,0,1,0,1.57-.05l1.78-.11a10.41,10.41,0,0,0,1.54-.2,8.19,8.19,0,0,0,2.52-.92,4.66,4.66,0,0,0,1.45-1.37,5.4,5.4,0,0,0,.75-1.74c.14-.63.28-1.31.39-2.05h.53v14.19h-.53a19.69,19.69,0,0,0-1-3,6.77,6.77,0,0,0-1.58-2.41,6.22,6.22,0,0,0-1.79-1.12,7.45,7.45,0,0,0-2.22-.46l-1.15-.07-.92,0h-2.12V328c0,.83,0,1.58,0,2.27s0,1.29,0,1.79c0,.94.09,1.82.16,2.66a4.07,4.07,0,0,0,.51,1.87,2.44,2.44,0,0,0,1.34.95,10.39,10.39,0,0,0,2.75.42v.44h-14.1V338a9.21,9.21,0,0,0,2-.57,4.36,4.36,0,0,0,1.57-1.1,2.21,2.21,0,0,0,.35-.77q.13-.51.24-1.17c.07-.44.13-.91.16-1.39s0-1,0-1.43,0-1,0-1.68,0-1.47.05-2.31,0-1.7,0-2.58V313.84c0-.53,0-1.08,0-1.63s-.05-1.09-.09-1.59a9.14,9.14,0,0,0-.22-1.34,1.86,1.86,0,0,0-.42-.86,3.08,3.08,0,0,0-1.41-.91c-.5-.13-1.15-.25-1.94-.37v-.44h24.5l3,7.4Z"/><path d="M177.31,338.42V338a5.17,5.17,0,0,0,.64-.09,5.22,5.22,0,0,0,1.06-.31,3,3,0,0,0,1-.61,1.34,1.34,0,0,0,.42-1,6,6,0,0,0-.24-1.3c-.17-.6-.39-1.33-.69-2.2s-.63-1.83-1-2.88-.79-2.16-1.23-3.31H165.51c-.44,1.12-.87,2.18-1.28,3.2L163,332.52a11.22,11.22,0,0,0-.92,3.35,1.33,1.33,0,0,0,.35.94,2.82,2.82,0,0,0,.9.62,5.12,5.12,0,0,0,1.19.35l1.22.2v.44h-9.39v-.48a4.92,4.92,0,0,0,2-.62,4.37,4.37,0,0,0,.95-.66,10.17,10.17,0,0,0,1-1.46,32,32,0,0,0,1.72-3.39q.93-2.07,2.07-4.71c.77-1.76,1.55-3.58,2.36-5.44s1.61-3.75,2.4-5.64,1.54-3.67,2.25-5.31l-.44-1a7.68,7.68,0,0,0,1.43-.84,8.82,8.82,0,0,0,1.94-2,8.42,8.42,0,0,0,.5-.79h.36c.91,2.44,1.77,4.75,2.6,6.94s1.6,4.3,2.35,6.32l2.18,5.89c.71,1.89,1.41,3.76,2.12,5.61.32.91.62,1.67.9,2.27l.95,2.05a5.08,5.08,0,0,0,.4.62,5.38,5.38,0,0,0,.81.9,5.18,5.18,0,0,0,1.26.82,4.66,4.66,0,0,0,1.76.39v.53Zm-5.77-26.7c-.17.38-.43,1-.77,1.81l-1.25,3c-.5,1.18-1.06,2.51-1.66,4l-2,4.83h11c-.5-1.33-1-2.65-1.52-4s-1-2.59-1.49-3.81-.93-2.34-1.33-3.35S171.81,312.37,171.54,311.72Z"/><path d="M224.3,308a3.94,3.94,0,0,0-1.52,1.89,7.68,7.68,0,0,0-.39,2.45q-.09,1.79-.18,3.81t-.15,4.47c-.05,1.72-.07,3.56-.07,5.53V329c0,1,0,2.08,0,3.15s0,2.14,0,3.19v2.87a.34.34,0,0,1-.11.28.41.41,0,0,1-.33.11,1.18,1.18,0,0,1-.79-.44q-3.75-4.31-6.83-7.93c-2.05-2.41-4-4.7-5.88-6.89s-3.69-4.33-5.49-6.41-3.68-4.25-5.68-6.48V329c0,1.5,0,2.85.11,4.06a7.23,7.23,0,0,0,.55,2.68,3.12,3.12,0,0,0,1.52,1.52,9.16,9.16,0,0,0,2.84.73v.44H191.1V338a8.73,8.73,0,0,0,2.12-.55,3.44,3.44,0,0,0,1.67-1.39,6,6,0,0,0,.8-2.73c.11-1.2.2-2.64.26-4.32.06-1.26.1-2.75.13-4.47s0-3.56,0-5.53v-5.37c0-.59,0-1.31,0-2.16a5.1,5.1,0,0,0-.61-2.1,4.07,4.07,0,0,0-1.15-1.27,4.33,4.33,0,0,0-1.43-.66,11,11,0,0,0-1.48-.29v-.44h9l20.88,24.41v-15c0-1.18,0-2.3,0-3.37a7.83,7.83,0,0,0-.4-2.54,4,4,0,0,0-1.56-2,7.59,7.59,0,0,0-3.24-1.08v-.44h10.93v.44A6.79,6.79,0,0,0,224.3,308Z"/><path d="M257,307.76a6.66,6.66,0,0,0-1.63,1.14,10.5,10.5,0,0,0-1.43,1.68c-.46.64-1,1.38-1.48,2.2-.35.56-.84,1.31-1.47,2.27s-1.28,1.94-1.94,3-1.3,2-1.92,3l-1.45,2.21V332c0,.86,0,1.68.06,2.49a3.44,3.44,0,0,0,.42,1.7,3.12,3.12,0,0,0,1.72,1.28c.7.2,1.38.36,2,.48v.44H236.35V338a10.11,10.11,0,0,0,2-.42,4.52,4.52,0,0,0,1.83-1.39,1.38,1.38,0,0,0,.33-.74c.07-.36.13-.75.18-1.19s.07-.91.08-1.41,0-1,0-1.46c0-.82.06-1.8.07-2.93s0-2.5,0-4.12l-.53-.83c-.29-.47-.65-1.05-1.07-1.75s-.9-1.46-1.41-2.31l-1.53-2.49c-.5-.81-1-1.56-1.41-2.27s-.8-1.27-1.1-1.72l-1.52-2.33a12.75,12.75,0,0,0-1.38-1.81,8,8,0,0,0-1.39-1.19,3.19,3.19,0,0,0-1.57-.48v-.44h13.35v.44c-.44,0-.88.07-1.32.13a6.51,6.51,0,0,0-1.23.29,2.61,2.61,0,0,0-.93.53,1.19,1.19,0,0,0-.35.9,4.18,4.18,0,0,0,.64,1.74c.42.78.87,1.56,1.34,2.36.33.53.71,1.16,1.15,1.91s.92,1.55,1.45,2.38,1.07,1.7,1.61,2.58,1.05,1.72,1.52,2.51c.38-.56.85-1.27,1.41-2.14l1.7-2.64c.57-.89,1.11-1.75,1.63-2.58s.9-1.46,1.17-1.93l.48-.82c.18-.31.34-.63.51-1a10.11,10.11,0,0,0,.42-1,3.36,3.36,0,0,0,.17-1,1.66,1.66,0,0,0-.35-1.11,2.52,2.52,0,0,0-.9-.61,5.44,5.44,0,0,0-1.22-.33c-.44-.08-.86-.14-1.27-.2v-.44h10.17v.44A6.81,6.81,0,0,0,257,307.76Z"/><path d="M300.2,316.92a15.07,15.07,0,0,0-1.72-4,14.07,14.07,0,0,0-2.71-3.21,12.36,12.36,0,0,0-3.53-2.16,10.92,10.92,0,0,0-4.16-.79,10.69,10.69,0,0,0-5.42,1.36,12.66,12.66,0,0,0-4,3.62,17.12,17.12,0,0,0-2.46,5.08,19.9,19.9,0,0,0-.86,5.84,19.16,19.16,0,0,0,.9,5.95,14.57,14.57,0,0,0,2.58,4.82,12.15,12.15,0,0,0,4.05,3.24,11.59,11.59,0,0,0,5.29,1.19,11.2,11.2,0,0,0,4.3-.83,13.21,13.21,0,0,0,6.21-5.36,11.54,11.54,0,0,0,1.47-3.68h.53l-.13,9.7H300a12.91,12.91,0,0,0-1.1-1.37c-.38-.41-.65-.62-.79-.62a4,4,0,0,0-.8.47,13.86,13.86,0,0,1-2,1,19.18,19.18,0,0,1-3.22,1,20.28,20.28,0,0,1-4.36.42,22.05,22.05,0,0,1-7.4-1.17,16,16,0,0,1-5.62-3.3,14.38,14.38,0,0,1-3.55-5.12,16.93,16.93,0,0,1-1.23-6.54,17.62,17.62,0,0,1,.11-1.8,15.46,15.46,0,0,1,.39-2.16,18.74,18.74,0,0,1,.8-2.4,16.51,16.51,0,0,1,1.3-2.54,15.45,15.45,0,0,1,2.29-2.86,14.45,14.45,0,0,1,3.22-2.4,18.14,18.14,0,0,1,4.18-1.66,20.66,20.66,0,0,1,5.24-.61,19.78,19.78,0,0,1,4.63.48,21.85,21.85,0,0,1,3.3,1.06,11.48,11.48,0,0,1,2,1.06,3.8,3.8,0,0,0,.8.48.78.78,0,0,0,.33-.2,7,7,0,0,0,.52-.48q.29-.29.6-.66c.2-.25.4-.51.57-.77h.49v9.87Z"/><path d="M323.33,338.42V338a5.91,5.91,0,0,0,1.69-.4,2.86,2.86,0,0,0,1-.61,1.34,1.34,0,0,0,.42-1,6,6,0,0,0-.24-1.3c-.16-.6-.39-1.33-.68-2.2s-.63-1.83-1-2.88-.79-2.16-1.23-3.31H311.52c-.44,1.12-.87,2.18-1.28,3.2L309,332.52a11,11,0,0,0-.93,3.35,1.3,1.3,0,0,0,.36.94,2.62,2.62,0,0,0,.9.62,5,5,0,0,0,1.19.35c.42.08.83.14,1.21.2v.44h-9.38v-.48a5,5,0,0,0,2-.62,3.94,3.94,0,0,0,.94-.66,9.21,9.21,0,0,0,1-1.46,32,32,0,0,0,1.72-3.39l2.07-4.71,2.35-5.44q1.21-2.81,2.41-5.64t2.24-5.31l-.44-1a7.37,7.37,0,0,0,1.43-.84,8.61,8.61,0,0,0,1.13-1,9.47,9.47,0,0,0,.81-1c.22-.32.39-.58.51-.79h.35q1.36,3.66,2.6,6.94t2.36,6.32c.75,2,1.47,4,2.18,5.89s1.41,3.76,2.11,5.61c.33.91.63,1.67.91,2.27s.59,1.29.94,2.05a6.78,6.78,0,0,0,.4.62,6,6,0,0,0,.82.9,4.92,4.92,0,0,0,1.25.82,4.7,4.7,0,0,0,1.76.39v.53Zm-5.77-26.7c-.18.38-.44,1-.77,1.81s-.76,1.82-1.26,3-1,2.51-1.65,4-1.26,3.09-2,4.83h11c-.5-1.33-1-2.65-1.52-4l-1.5-3.81c-.49-1.22-.93-2.34-1.32-3.35Z"/><path d="M370.32,308a3.88,3.88,0,0,0-1.52,1.89,7.34,7.34,0,0,0-.4,2.45c-.06,1.19-.12,2.46-.17,3.81s-.11,2.75-.16,4.47-.06,3.56-.06,5.53V329c0,1,0,2.08,0,3.15s0,2.14,0,3.19v2.87a.38.38,0,0,1-.11.28.41.41,0,0,1-.33.11,1.16,1.16,0,0,1-.79-.44q-3.75-4.31-6.83-7.93l-5.89-6.89q-2.79-3.29-5.48-6.41t-5.69-6.48V329c0,1.5,0,2.85.12,4.06a7,7,0,0,0,.55,2.68,3.12,3.12,0,0,0,1.52,1.52A9.08,9.08,0,0,0,348,338v.44H337.12V338a8.65,8.65,0,0,0,2.11-.55,3.42,3.42,0,0,0,1.68-1.39,6,6,0,0,0,.79-2.73q.18-1.8.27-4.32c0-1.26.1-2.75.13-4.47s0-3.56,0-5.53v-5.37c0-.59,0-1.31,0-2.16a5.26,5.26,0,0,0-.62-2.1,3.93,3.93,0,0,0-1.14-1.27,4.37,4.37,0,0,0-1.44-.66,10.58,10.58,0,0,0-1.47-.29v-.44h8.94l20.89,24.41v-15c0-1.18,0-2.3-.05-3.37a8.15,8.15,0,0,0-.39-2.54,4.05,4.05,0,0,0-1.57-2,7.59,7.59,0,0,0-3.24-1.08v-.44h10.93v.44A6.68,6.68,0,0,0,370.32,308Z"/><path d="M408.1,328.86a16.39,16.39,0,0,1-3.59,5.2,15.78,15.78,0,0,1-5.29,3.39,17.81,17.81,0,0,1-12.75,0,15.85,15.85,0,0,1-5.25-3.3,15.4,15.4,0,0,1-3.54-5.11,16.08,16.08,0,0,1-1.3-6.54,16.33,16.33,0,0,1,1.36-6.81,15.29,15.29,0,0,1,3.68-5.11,16.12,16.12,0,0,1,5.42-3.22,19,19,0,0,1,6.54-1.12,16.38,16.38,0,0,1,6.72,1.32,15.1,15.1,0,0,1,5,3.55,15.4,15.4,0,0,1,3.17,5.13,17.1,17.1,0,0,1,1.1,6.08A16,16,0,0,1,408.1,328.86ZM403.28,317A17.11,17.11,0,0,0,401.2,312a11.72,11.72,0,0,0-3.45-3.62,8.66,8.66,0,0,0-4.9-1.38,8.78,8.78,0,0,0-5,1.38,11.39,11.39,0,0,0-3.44,3.6,16.49,16.49,0,0,0-2,5,25.06,25.06,0,0,0-.64,5.66,22.86,22.86,0,0,0,.71,5.77,15.68,15.68,0,0,0,2.09,4.89,10.83,10.83,0,0,0,3.48,3.39A9.08,9.08,0,0,0,393,338a8.27,8.27,0,0,0,4.82-1.41,11.89,11.89,0,0,0,3.42-3.63,17.7,17.7,0,0,0,2-5,23.56,23.56,0,0,0,.68-5.56A22.61,22.61,0,0,0,403.28,317Z"/><path class="cls-1" d="M40.18,212.2c.07.26.24.71.24.71s.1.23.14.36a89.87,89.87,0,0,0,62.77,56.54,88.87,88.87,0,0,0,40.13.61c1.53-.32,1.66,0,1.16,1.29a30.6,30.6,0,0,0-1.51,4.41c-.43,1.91-1.64,2.52-3.4,2.76-28.39,3.88-53.94-2.79-76.3-20.82a94.7,94.7,0,0,1-29.72-41.5c-.31-.83-1.47-3.69-1.61-4.34Z"/><rect class="cls-2" x="23.32" y="301.75" width="2.57" height="64.87"/><rect class="cls-2" x="46.97" y="340.41" width="2.57" height="49.87" transform="translate(-317.09 413.6) rotate(-90)"/><rect class="cls-2" x="420.23" y="301.75" width="2.57" height="64.87" transform="translate(843.02 668.38) rotate(-180)"/><rect class="cls-2" x="396.57" y="340.41" width="2.57" height="49.87" transform="translate(32.52 763.2) rotate(-90)"/><rect class="cls-2" x="186.84" y="37.89" width="2.57" height="64.87"/><rect class="cls-2" x="411.44" y="37.89" width="2.57" height="64.87"/><path class="cls-3" d="M99.52,367H90.79l-2,5.46h-1.7l7.32-19.59h1.54l7.26,19.59h-1.69Zm-8.21-1.44H99l-3.77-10.39h-.09Z"/><path class="cls-3" d="M114.18,363.57v8.85h-1.64V352.85h6.63a7.66,7.66,0,0,1,4.91,1.38,4.89,4.89,0,0,1,1.7,4,4.61,4.61,0,0,1-.9,2.79,5.2,5.2,0,0,1-2.58,1.79,4.37,4.37,0,0,1,2.66,1.64,5.06,5.06,0,0,1,.81,2.95v1.84a5.52,5.52,0,0,0,.22,1.64,2.49,2.49,0,0,0,.72,1.18v.33h-1.66a2.65,2.65,0,0,1-.71-1.36,7.75,7.75,0,0,1-.21-1.82v-1.79a3.59,3.59,0,0,0-1.18-2.84,4.85,4.85,0,0,0-3.3-1Zm0-1.37H119a6,6,0,0,0,3.93-1.07,3.63,3.63,0,0,0,1.25-2.89,3.71,3.71,0,0,0-1.24-3,5.76,5.76,0,0,0-3.75-1h-5Z"/><path class="cls-3" d="M151.74,364.23a10.46,10.46,0,0,1-.49,3.29,8,8,0,0,1-1.43,2.62L153,373.2l-1.14,1.07-3.21-3a7.3,7.3,0,0,1-2.14,1.08,8.32,8.32,0,0,1-2.53.37,7.11,7.11,0,0,1-5.59-2.34,8.86,8.86,0,0,1-2.08-6.13V361a8.94,8.94,0,0,1,2.07-6.13,7.09,7.09,0,0,1,5.58-2.36,7.28,7.28,0,0,1,5.68,2.36,8.82,8.82,0,0,1,2.11,6.13ZM150.12,361a7.67,7.67,0,0,0-1.64-5.11A5.61,5.61,0,0,0,144,354a5.42,5.42,0,0,0-4.43,1.94,7.8,7.8,0,0,0-1.58,5.11v3.22a7.83,7.83,0,0,0,1.59,5.13A5.4,5.4,0,0,0,144,371.3a5.58,5.58,0,0,0,4.53-1.93,7.74,7.74,0,0,0,1.62-5.14Z"/><path class="cls-3" d="M176.47,352.83v13a6.44,6.44,0,0,1-2,5,7.41,7.41,0,0,1-5.16,1.82,7.26,7.26,0,0,1-5.1-1.82,6.55,6.55,0,0,1-2-5v-13h1.64v13a5.16,5.16,0,0,0,5.43,5.5,5.55,5.55,0,0,0,4-1.48,5.26,5.26,0,0,0,1.56-4v-13Z"/><path class="cls-3" d="M189.64,372.42H188V352.83h1.64Z"/><path class="cls-3" d="M214.59,354.21H207.8v18.21h-1.62V354.21h-7v-1.38h15.43Z"/><path class="cls-3" d="M234.65,362.94h-8.93v8.12h10.33v1.36h-12V352.83H236v1.38H225.72v7.35h8.93Z"/><path class="cls-3" d="M259.53,366.3l0,.08a5.65,5.65,0,0,1-1.91,4.6,7.58,7.58,0,0,1-5.17,1.72,6.74,6.74,0,0,1-5.36-2.36,9,9,0,0,1-2-6.11V361a9,9,0,0,1,2-6.11,6.7,6.7,0,0,1,5.36-2.38,7.68,7.68,0,0,1,5.19,1.68,5.63,5.63,0,0,1,1.89,4.63l0,.08H258a4.7,4.7,0,0,0-1.47-3.69,5.85,5.85,0,0,0-4-1.33,5.1,5.1,0,0,0-4.19,2,7.92,7.92,0,0,0-1.58,5.1v3.22a8,8,0,0,0,1.58,5.13,5.09,5.09,0,0,0,4.19,2,5.93,5.93,0,0,0,4-1.29A4.72,4.72,0,0,0,258,366.3Z"/><path class="cls-3" d="M283.21,354.21h-6.78v18.21H274.8V354.21h-7v-1.38h15.42Z"/><path class="cls-3" d="M306.69,352.83v13a6.44,6.44,0,0,1-2,5,7.41,7.41,0,0,1-5.16,1.82,7.26,7.26,0,0,1-5.1-1.82,6.55,6.55,0,0,1-2-5v-13h1.64v13a5.16,5.16,0,0,0,5.43,5.5,5.55,5.55,0,0,0,4-1.48,5.26,5.26,0,0,0,1.56-4v-13Z"/><path class="cls-3" d="M319.39,363.57v8.85h-1.64V352.85h6.63a7.64,7.64,0,0,1,4.91,1.38,4.87,4.87,0,0,1,1.71,4,4.55,4.55,0,0,1-.91,2.79,5.15,5.15,0,0,1-2.58,1.79,4.34,4.34,0,0,1,2.66,1.64,5,5,0,0,1,.82,2.95v1.84a5.52,5.52,0,0,0,.22,1.64,2.41,2.41,0,0,0,.72,1.18v.33h-1.67a2.72,2.72,0,0,1-.71-1.36,7.75,7.75,0,0,1-.2-1.82v-1.79a3.6,3.6,0,0,0-1.19-2.84,4.85,4.85,0,0,0-3.3-1Zm0-1.37h4.8a6,6,0,0,0,3.94-1.07,3.62,3.62,0,0,0,1.24-2.89,3.7,3.7,0,0,0-1.23-3,5.78,5.78,0,0,0-3.76-1h-5Z"/><path class="cls-3" d="M352.78,367H344l-2,5.46h-1.69l7.31-19.59h1.54l7.26,19.59h-1.69Zm-8.22-1.44h7.68l-3.77-10.39h-.08Z"/></svg>